<mxfile host="app.diagrams.net" agent="Mozilla/5.0 (Windows NT 10.0; Win64; x64) AppleWebKit/537.36 (KHTML, like Gecko) Chrome/129.0.0.0 Safari/537.36" version="24.7.17">
  <diagram name="Страница — 1" id="mTOSu6EvbA_pOTBClpt9">
    <mxGraphModel dx="1050" dy="1787" grid="1" gridSize="10" guides="1" tooltips="1" connect="1" arrows="1" fold="1" page="1" pageScale="1" pageWidth="827" pageHeight="1169" math="0" shadow="0">
      <root>
        <mxCell id="0" />
        <mxCell id="1" parent="0" />
        <mxCell id="DXVNn-tkCiMBmw5VKK68-3" value="  C1   " style="swimlane;fontStyle=1;align=center;verticalAlign=top;childLayout=stackLayout;horizontal=1;startSize=26;horizontalStack=0;resizeParent=1;resizeParentMax=0;resizeLast=0;collapsible=1;marginBottom=0;whiteSpace=wrap;html=1;" parent="1" vertex="1">
          <mxGeometry x="60" y="-1120" width="260" height="320" as="geometry" />
        </mxCell>
        <mxCell id="DXVNn-tkCiMBmw5VKK68-4" value="- PrivateConstant: &lt;span class=&quot;hljs-built_in&quot;&gt;int&lt;/span&gt; = &lt;span class=&quot;hljs-number&quot;&gt;10&lt;/span&gt;&lt;br&gt;+ PublicConstant: &lt;span class=&quot;hljs-built_in&quot;&gt;int&lt;/span&gt; = &lt;span class=&quot;hljs-number&quot;&gt;20&lt;/span&gt;&amp;nbsp;&lt;br&gt;&lt;span class=&quot;hljs-meta&quot;&gt;# ProtectedConstant: int = 30&lt;/span&gt;&lt;br&gt;- privateField: &lt;span class=&quot;hljs-built_in&quot;&gt;int&lt;/span&gt;&lt;br&gt;+ publicField: &lt;span class=&quot;hljs-built_in&quot;&gt;int&lt;/span&gt;&amp;nbsp;&lt;br&gt;&lt;span class=&quot;hljs-meta&quot;&gt;# protectedField: int&amp;nbsp;&lt;/span&gt;&lt;br&gt;- PrivateProperty: &lt;span class=&quot;hljs-built_in&quot;&gt;int&lt;/span&gt; { &lt;span class=&quot;hljs-keyword&quot;&gt;get&lt;/span&gt;; &lt;span class=&quot;hljs-keyword&quot;&gt;set&lt;/span&gt;; }&lt;br&gt;+ PublicProperty: &lt;span class=&quot;hljs-built_in&quot;&gt;int&lt;/span&gt; { &lt;span class=&quot;hljs-keyword&quot;&gt;get&lt;/span&gt;; &lt;span class=&quot;hljs-keyword&quot;&gt;set&lt;/span&gt;; }&amp;nbsp;&lt;br&gt;&lt;span class=&quot;hljs-meta&quot;&gt;# ProtectedProperty: int { get; set; }&lt;/span&gt;" style="text;strokeColor=none;fillColor=none;align=left;verticalAlign=top;spacingLeft=4;spacingRight=4;overflow=hidden;rotatable=0;points=[[0,0.5],[1,0.5]];portConstraint=eastwest;whiteSpace=wrap;html=1;" parent="DXVNn-tkCiMBmw5VKK68-3" vertex="1">
          <mxGeometry y="26" width="260" height="164" as="geometry" />
        </mxCell>
        <mxCell id="DXVNn-tkCiMBmw5VKK68-5" value="" style="line;strokeWidth=1;fillColor=none;align=left;verticalAlign=middle;spacingTop=-1;spacingLeft=3;spacingRight=3;rotatable=0;labelPosition=right;points=[];portConstraint=eastwest;strokeColor=inherit;" parent="DXVNn-tkCiMBmw5VKK68-3" vertex="1">
          <mxGeometry y="190" width="260" height="8" as="geometry" />
        </mxCell>
        <mxCell id="DXVNn-tkCiMBmw5VKK68-6" value="+ C1()&amp;nbsp;&lt;br&gt;+ C1(&lt;span class=&quot;hljs-built_in&quot;&gt;int&lt;/span&gt; publicField, &lt;span class=&quot;hljs-built_in&quot;&gt;int&lt;/span&gt; protectedField, &lt;span class=&quot;hljs-built_in&quot;&gt;int&lt;/span&gt; privateField)&lt;br&gt;+ C1(C1 obj)&lt;br&gt;- PrivateMethod(): &lt;span class=&quot;hljs-keyword&quot;&gt;void&lt;/span&gt;&lt;br&gt;+ PublicMethod(): &lt;span class=&quot;hljs-keyword&quot;&gt;void&lt;/span&gt;&amp;nbsp;&lt;br&gt;&lt;span class=&quot;hljs-meta&quot;&gt;# ProtectedMethod(): void&amp;nbsp; &amp;nbsp;&amp;nbsp;&lt;/span&gt;" style="text;strokeColor=none;fillColor=none;align=left;verticalAlign=top;spacingLeft=4;spacingRight=4;overflow=hidden;rotatable=0;points=[[0,0.5],[1,0.5]];portConstraint=eastwest;whiteSpace=wrap;html=1;" parent="DXVNn-tkCiMBmw5VKK68-3" vertex="1">
          <mxGeometry y="198" width="260" height="122" as="geometry" />
        </mxCell>
        <mxCell id="c-tZ_B9AGakPudKKEG37-1" value="«interface» I1  " style="swimlane;fontStyle=0;childLayout=stackLayout;horizontal=1;startSize=26;fillColor=none;horizontalStack=0;resizeParent=1;resizeParentMax=0;resizeLast=0;collapsible=1;marginBottom=0;whiteSpace=wrap;html=1;" vertex="1" parent="1">
          <mxGeometry x="459" y="-1120" width="290" height="100" as="geometry" />
        </mxCell>
        <mxCell id="c-tZ_B9AGakPudKKEG37-2" value="&lt;span class=&quot;hljs-operator&quot;&gt;&lt;span class=&quot;hljs-operator&quot;&gt;&amp;lt;&amp;lt;&lt;/span&gt;getter, setter&lt;span class=&quot;hljs-operator&quot;&gt;&amp;gt;&amp;gt;&amp;nbsp;&lt;/span&gt;+&lt;/span&gt; MyProperty: &lt;span class=&quot;hljs-type&quot;&gt;int&lt;/span&gt; { &lt;span class=&quot;hljs-keyword&quot;&gt;get&lt;/span&gt;; &lt;span class=&quot;hljs-keyword&quot;&gt;set&lt;/span&gt;; }&amp;nbsp;&lt;br&gt;&lt;span class=&quot;hljs-operator&quot;&gt;&lt;span class=&quot;hljs-operator&quot;&gt;&amp;lt;&amp;lt;&lt;/span&gt;&lt;span class=&quot;hljs-keyword&quot;&gt;method&lt;/span&gt;&lt;span class=&quot;hljs-operator&quot;&gt;&amp;gt;&amp;gt;&amp;nbsp;&lt;/span&gt;+&lt;/span&gt; MyMethod(): void&amp;nbsp;&lt;br&gt;&lt;span class=&quot;hljs-operator&quot;&gt;&lt;span class=&quot;hljs-operator&quot;&gt;&amp;lt;&amp;lt;&lt;/span&gt;event&lt;span class=&quot;hljs-operator&quot;&gt;&amp;gt;&amp;gt;&amp;nbsp;&lt;/span&gt;+&lt;/span&gt; MyEvent: EventHandler&amp;nbsp;&lt;br&gt;&lt;span class=&quot;hljs-operator&quot;&gt;&lt;span class=&quot;hljs-operator&quot;&gt;&amp;lt;&amp;lt;&lt;/span&gt;indexer&lt;span class=&quot;hljs-operator&quot;&gt;&amp;gt;&amp;gt;&amp;nbsp;&lt;/span&gt;+&lt;/span&gt; this[&lt;span class=&quot;hljs-type&quot;&gt;int&lt;/span&gt; index]: &lt;span class=&quot;hljs-type&quot;&gt;int&lt;/span&gt; { &lt;span class=&quot;hljs-keyword&quot;&gt;get&lt;/span&gt;; &lt;span class=&quot;hljs-keyword&quot;&gt;set&lt;/span&gt;; }&amp;nbsp;" style="text;strokeColor=none;fillColor=none;align=left;verticalAlign=top;spacingLeft=4;spacingRight=4;overflow=hidden;rotatable=0;points=[[0,0.5],[1,0.5]];portConstraint=eastwest;whiteSpace=wrap;html=1;" vertex="1" parent="c-tZ_B9AGakPudKKEG37-1">
          <mxGeometry y="26" width="290" height="74" as="geometry" />
        </mxCell>
        <mxCell id="c-tZ_B9AGakPudKKEG37-4" value="«&lt;span class=&quot;hljs-keyword&quot;&gt;interface&lt;/span&gt;» &lt;span class=&quot;hljs-title&quot;&gt;I1&lt;/span&gt;" style="swimlane;fontStyle=1;align=center;verticalAlign=top;childLayout=stackLayout;horizontal=1;startSize=26;horizontalStack=0;resizeParent=1;resizeParentMax=0;resizeLast=0;collapsible=1;marginBottom=0;whiteSpace=wrap;html=1;" vertex="1" parent="1">
          <mxGeometry x="60" y="-680" width="180" height="120" as="geometry" />
        </mxCell>
        <mxCell id="c-tZ_B9AGakPudKKEG37-5" value="+ &lt;span class=&quot;hljs-title&quot;&gt;MyProperty&lt;/span&gt;: &lt;span class=&quot;hljs-title&quot;&gt;int&lt;/span&gt;&lt;div&gt;&lt;span class=&quot;hljs-title&quot;&gt;+ MyMethod(): &lt;span class=&quot;hljs-keyword&quot;&gt;void&lt;/span&gt;&lt;br&gt;&lt;/span&gt;&lt;/div&gt;&lt;div&gt;&lt;span class=&quot;hljs-title&quot;&gt;&lt;span class=&quot;hljs-keyword&quot;&gt;+ MyEvent: EventHandler&lt;br&gt;&lt;/span&gt;&lt;/span&gt;&lt;/div&gt;&lt;div&gt;&lt;span class=&quot;hljs-title&quot;&gt;&lt;span class=&quot;hljs-keyword&quot;&gt;+ &lt;span class=&quot;hljs-keyword&quot;&gt;this&lt;/span&gt;[&lt;span class=&quot;hljs-built_in&quot;&gt;int&lt;/span&gt; index]: &lt;span class=&quot;hljs-built_in&quot;&gt;int&lt;/span&gt; { &lt;span class=&quot;hljs-keyword&quot;&gt;get&lt;/span&gt;; &lt;span class=&quot;hljs-keyword&quot;&gt;set&lt;/span&gt;; }&lt;br&gt;&lt;/span&gt;&lt;/span&gt;&lt;/div&gt;" style="text;strokeColor=none;fillColor=none;align=left;verticalAlign=top;spacingLeft=4;spacingRight=4;overflow=hidden;rotatable=0;points=[[0,0.5],[1,0.5]];portConstraint=eastwest;whiteSpace=wrap;html=1;" vertex="1" parent="c-tZ_B9AGakPudKKEG37-4">
          <mxGeometry y="26" width="180" height="94" as="geometry" />
        </mxCell>
        <mxCell id="c-tZ_B9AGakPudKKEG37-6" value="&lt;span class=&quot;hljs-title&quot;&gt;C2&lt;/span&gt;" style="swimlane;fontStyle=1;align=center;verticalAlign=top;childLayout=stackLayout;horizontal=1;startSize=26;horizontalStack=0;resizeParent=1;resizeParentMax=0;resizeLast=0;collapsible=1;marginBottom=0;whiteSpace=wrap;html=1;" vertex="1" parent="1">
          <mxGeometry x="410" y="-720" width="320" height="200" as="geometry" />
        </mxCell>
        <mxCell id="c-tZ_B9AGakPudKKEG37-7" value="+ &lt;span class=&quot;hljs-title&quot;&gt;MyProperty&lt;/span&gt;: &lt;span class=&quot;hljs-title&quot;&gt;int&lt;/span&gt; { &lt;span class=&quot;hljs-keyword&quot;&gt;get&lt;/span&gt;; &lt;span class=&quot;hljs-keyword&quot;&gt;set&lt;/span&gt;; }&lt;div&gt;+ MyMethod(): &lt;span class=&quot;hljs-keyword&quot;&gt;void&lt;/span&gt;&lt;br&gt;+ MyEvent: EventHandler&lt;br&gt;+ MyEvent: EventHandler&lt;br&gt;&lt;/div&gt;&lt;div&gt;+ &lt;span class=&quot;hljs-keyword&quot;&gt;this&lt;/span&gt;[&lt;span class=&quot;hljs-built_in&quot;&gt;int&lt;/span&gt; index]: &lt;span class=&quot;hljs-built_in&quot;&gt;int&lt;/span&gt; { &lt;span class=&quot;hljs-keyword&quot;&gt;get&lt;/span&gt;; &lt;span class=&quot;hljs-keyword&quot;&gt;set&lt;/span&gt;; }&lt;br&gt;&lt;/div&gt;" style="text;strokeColor=none;fillColor=none;align=left;verticalAlign=top;spacingLeft=4;spacingRight=4;overflow=hidden;rotatable=0;points=[[0,0.5],[1,0.5]];portConstraint=eastwest;whiteSpace=wrap;html=1;" vertex="1" parent="c-tZ_B9AGakPudKKEG37-6">
          <mxGeometry y="26" width="320" height="94" as="geometry" />
        </mxCell>
        <mxCell id="c-tZ_B9AGakPudKKEG37-8" value="" style="line;strokeWidth=1;fillColor=none;align=left;verticalAlign=middle;spacingTop=-1;spacingLeft=3;spacingRight=3;rotatable=0;labelPosition=right;points=[];portConstraint=eastwest;strokeColor=inherit;" vertex="1" parent="c-tZ_B9AGakPudKKEG37-6">
          <mxGeometry y="120" width="320" height="8" as="geometry" />
        </mxCell>
        <mxCell id="c-tZ_B9AGakPudKKEG37-9" value="+ PublicMethod(): &lt;span class=&quot;hljs-keyword&quot;&gt;void&lt;/span&gt;&lt;br&gt;+ PublicField: &lt;span class=&quot;hljs-built_in&quot;&gt;int&lt;/span&gt;&amp;nbsp;&lt;br&gt;+ C2()&lt;br&gt;+ C2(&lt;span class=&quot;hljs-built_in&quot;&gt;int&lt;/span&gt;, &lt;span class=&quot;hljs-built_in&quot;&gt;int&lt;/span&gt;, &lt;span class=&quot;hljs-built_in&quot;&gt;int&lt;/span&gt;)" style="text;strokeColor=none;fillColor=none;align=left;verticalAlign=top;spacingLeft=4;spacingRight=4;overflow=hidden;rotatable=0;points=[[0,0.5],[1,0.5]];portConstraint=eastwest;whiteSpace=wrap;html=1;" vertex="1" parent="c-tZ_B9AGakPudKKEG37-6">
          <mxGeometry y="128" width="320" height="72" as="geometry" />
        </mxCell>
        <mxCell id="c-tZ_B9AGakPudKKEG37-10" value="«realization»" style="text;strokeColor=none;fillColor=none;html=1;fontSize=14;fontStyle=1;verticalAlign=middle;align=center;" vertex="1" parent="1">
          <mxGeometry x="270" y="-640" width="103" height="10" as="geometry" />
        </mxCell>
        <mxCell id="c-tZ_B9AGakPudKKEG37-11" value="" style="endArrow=open;endFill=1;endSize=12;html=1;rounded=0;entryX=0.001;entryY=0.791;entryDx=0;entryDy=0;entryPerimeter=0;" edge="1" parent="1" target="c-tZ_B9AGakPudKKEG37-7">
          <mxGeometry width="160" relative="1" as="geometry">
            <mxPoint x="240" y="-620" as="sourcePoint" />
            <mxPoint x="409.99999999999994" y="-620.822" as="targetPoint" />
            <Array as="points" />
          </mxGeometry>
        </mxCell>
      </root>
    </mxGraphModel>
  </diagram>
</mxfile>
